<?xml version="1.0" encoding="UTF-8"?>
<svg id="Camada_2" xmlns="http://www.w3.org/2000/svg" version="1.1" xmlns:xlink="http://www.w3.org/1999/xlink" viewBox="0 0 50.9 41">
  <!-- Generator: Adobe Illustrator 29.0.0, SVG Export Plug-In . SVG Version: 2.1.0 Build 186)  -->
  <defs>
    <style>
      .st0 {
        fill: url(#Gradiente_sem_nome_171);
      }

      .st1 {
        fill: url(#Gradiente_sem_nome_17);
      }

      .st2 {
        fill: #0fa7ff;
      }

      .st3 {
        fill: #1d1d1b;
      }
    </style>
    <linearGradient id="Gradiente_sem_nome_17" data-name="Gradiente sem nome 17" x1="30.5" y1="41.2" x2="30.5" y2="9.7" gradientUnits="userSpaceOnUse">
      <stop offset="0" stop-color="#000"/>
      <stop offset="0" stop-color="#0f0f0f"/>
      <stop offset=".1" stop-color="#464646"/>
      <stop offset=".2" stop-color="#787878"/>
      <stop offset=".3" stop-color="#a1a1a1"/>
      <stop offset=".4" stop-color="#c3c3c3"/>
      <stop offset=".5" stop-color="#ddd"/>
      <stop offset=".6" stop-color="#f0f0f0"/>
      <stop offset=".7" stop-color="#fbfbfb"/>
      <stop offset=".8" stop-color="#fff"/>
    </linearGradient>
    <linearGradient id="Gradiente_sem_nome_171" data-name="Gradiente sem nome 17" x1="20.4" y1="41.2" x2="20.4" y2="9.7" xlink:href="#Gradiente_sem_nome_17"/>
  </defs>
  <g id="Camada_1-2">
    <g id="Repetir">
      <g>
        <rect class="st3" x="1" y="1" width="48.9" height="39"/>
        <path class="st2" d="M50.9,40.9H0V0h50.9v41h0ZM3.8,37.5h43.3V3.4H3.8v34.1Z"/>
      </g>
      <g>
        <path class="st1" d="M38.2,23.4v-6.2c0-3.7-2.6-6.7-5.7-6.7h-12.7v2.7h12.7c1.7,0,3,1.8,3,4v6.2h-2.8l4.2,7.2,4.2-7.2h-2.9Z"/>
        <path class="st0" d="M15.4,23.8v-6.2h2.8l-4.2-7.2-4.2,7.2h2.8v6.2c0,3.7,2.6,6.7,5.7,6.7h12.7v-2.7h-12.7c-1.7,0-3-1.8-3-4h.1Z"/>
      </g>
    </g>
  </g>
</svg>