<?xml version="1.0" encoding="UTF-8"?>
<svg id="Camada_2" xmlns="http://www.w3.org/2000/svg" version="1.1" xmlns:xlink="http://www.w3.org/1999/xlink" viewBox="0 0 50.9 41">
  <!-- Generator: Adobe Illustrator 29.0.0, SVG Export Plug-In . SVG Version: 2.1.0 Build 186)  -->
  <defs>
    <style>
      .st0 {
        fill: url(#Gradiente_sem_nome_171);
      }

      .st1 {
        fill: url(#Gradiente_sem_nome_17);
      }

      .st2 {
        fill: #0fa7ff;
      }

      .st3 {
        fill: #1d1d1b;
      }

      .st4 {
        fill: url(#Gradiente_sem_nome_172);
      }
    </style>
    <linearGradient id="Gradiente_sem_nome_17" data-name="Gradiente sem nome 17" x1="14.6" y1="41.4" x2="14.6" y2="6.8" gradientUnits="userSpaceOnUse">
      <stop offset="0" stop-color="#000"/>
      <stop offset="0" stop-color="#0f0f0f"/>
      <stop offset=".1" stop-color="#464646"/>
      <stop offset=".2" stop-color="#787878"/>
      <stop offset=".3" stop-color="#a1a1a1"/>
      <stop offset=".4" stop-color="#c3c3c3"/>
      <stop offset=".5" stop-color="#ddd"/>
      <stop offset=".6" stop-color="#f0f0f0"/>
      <stop offset=".7" stop-color="#fbfbfb"/>
      <stop offset=".8" stop-color="#fff"/>
    </linearGradient>
    <linearGradient id="Gradiente_sem_nome_171" data-name="Gradiente sem nome 17" x1="37.4" y1="41.4" x2="37.4" y2="6.8" xlink:href="#Gradiente_sem_nome_17"/>
    <linearGradient id="Gradiente_sem_nome_172" data-name="Gradiente sem nome 17" x1="25.6" x2="25.6" xlink:href="#Gradiente_sem_nome_17"/>
  </defs>
  <g id="Camada_1-2">
    <g id="Continuar">
      <g>
        <rect class="st3" x="1" y="1" width="48.9" height="39"/>
        <path class="st2" d="M50.9,41H0V0h50.9v41ZM3.8,37.5h43.3V3.4H3.8v34.1Z"/>
      </g>
      <g>
        <polygon class="st1" points="12.6 16.2 16.5 19.8 7.6 19.8 7.6 22.6 16.5 22.6 12.6 26.1 14.5 27.9 21.6 21.2 14.5 14.5 12.6 16.2"/>
        <polygon class="st0" points="37.4 14.5 35.5 16.2 39.3 19.8 30.4 19.8 30.4 22.6 39.3 22.6 35.5 26.1 37.4 27.9 44.5 21.2 37.4 14.5"/>
        <rect class="st4" x="24.2" y="7.1" width="2.8" height="26.8"/>
      </g>
    </g>
  </g>
</svg>