<?xml version="1.0" encoding="UTF-8"?>
<svg id="Camada_2" xmlns="http://www.w3.org/2000/svg" version="1.1" xmlns:xlink="http://www.w3.org/1999/xlink" viewBox="0 0 38 29.1">
  <!-- Generator: Adobe Illustrator 29.0.0, SVG Export Plug-In . SVG Version: 2.1.0 Build 186)  -->
  <defs>
    <style>
      .st0 {
        fill: url(#Gradiente_sem_nome_171);
      }

      .st1 {
        fill: url(#Gradiente_sem_nome_17);
      }

      .st2 {
        fill: #0fa7ff;
      }
    </style>
    <linearGradient id="Gradiente_sem_nome_17" data-name="Gradiente sem nome 17" x1="-1.8" y1="35.3" x2="4.5" y2="1.6" gradientUnits="userSpaceOnUse">
      <stop offset="0" stop-color="#000"/>
      <stop offset="0" stop-color="#0f0f0f"/>
      <stop offset=".1" stop-color="#464646"/>
      <stop offset=".2" stop-color="#787878"/>
      <stop offset=".3" stop-color="#a1a1a1"/>
      <stop offset=".4" stop-color="#c3c3c3"/>
      <stop offset=".5" stop-color="#ddd"/>
      <stop offset=".6" stop-color="#f0f0f0"/>
      <stop offset=".7" stop-color="#fbfbfb"/>
      <stop offset=".8" stop-color="#fff"/>
    </linearGradient>
    <linearGradient id="Gradiente_sem_nome_171" data-name="Gradiente sem nome 17" x1="9.9" y1="37.5" x2="16.2" y2="3.8" xlink:href="#Gradiente_sem_nome_17"/>
  </defs>
  <g id="Camada_1-2">
    <g id="Som">
      <g>
        <rect class="st1" y="10.3" width="4.2" height="8.3"/>
        <g>
          <path class="st2" d="M26.4,21.5l-2.2-2.2c1.3-1.3,2-3,2-4.9s-.7-3.6-2-4.9l2.2-2.2c1.9,1.9,2.9,4.4,2.9,7.1s-1,5.2-2.9,7.1Z"/>
          <path class="st2" d="M31.9,29.1l-2.2-2.2c6.8-6.8,6.8-17.9,0-24.7L31.9,0c8,8,8,21.1,0,29.1h0Z"/>
        </g>
      </g>
      <path class="st0" d="M18.1,10.7V.3l-9.9,9.4v9.5l9.9,9.4v-10.4s2.9-.8,2.9-3.7-2.9-3.7-2.9-3.7h0Z"/>
    </g>
  </g>
</svg>